<svg width="23" height="23" viewBox="0 0 23 23" fill="none" xmlns="http://www.w3.org/2000/svg">
<g clip-path="url(#clip0_1_9)">
<path d="M22.14 19.5108C22.14 20.1026 21.797 20.2453 21.3812 19.8264L15.6283 14.073C15.1735 13.5635 14.9059 12.9141 14.8695 12.2321V1.85752C14.8707 1.57211 14.9846 1.29874 15.1864 1.09692C15.3882 0.895105 15.6616 0.781197 15.947 0.779999H21.0549C21.3407 0.780798 21.6145 0.894525 21.8166 1.09638C22.0187 1.29824 22.1328 1.57185 22.134 1.85752L22.14 19.5108ZM3.09496 1.54185C2.67612 1.12298 2.81726 0.783028 3.41062 0.783028H11.7495C12.035 0.783829 12.3086 0.897613 12.5105 1.09952C12.7123 1.30142 12.8261 1.57503 12.8269 1.86056V10.2076C12.8269 10.801 12.484 10.9421 12.0682 10.5233L3.09496 1.54185ZM19.9396 21.2712C20.3584 21.69 20.2173 22.03 19.624 22.03H11.2851C10.9996 22.0292 10.726 21.9154 10.5241 21.7136C10.3223 21.5116 10.2085 21.2381 10.2077 20.9524V12.6055C10.2077 12.0136 10.5506 11.8709 10.9664 12.2898L19.9396 21.2712ZM0.896054 3.30383C0.896054 2.71044 1.2375 2.5693 1.65482 2.98816L7.40782 8.74155C7.86279 9.25038 8.13048 9.89928 8.16658 10.5809V20.9524C8.16578 21.2381 8.052 21.5116 7.85011 21.7136C7.64822 21.9154 7.37463 22.0292 7.08912 22.03H1.96744C1.68181 22.0297 1.40798 21.9159 1.20601 21.7139C1.00403 21.512 0.890416 21.2381 0.890015 20.9524L0.896054 3.30383Z" fill="white"/>
</g>
<defs>
<clipPath id="clip0_1_9">
<rect width="21.25" height="21.25" fill="white" transform="translate(0.890015 0.779999)"/>
</clipPath>
</defs>
</svg>
